Coordinates
version=1
nRows=7
nColumns=40
inDegrees=yes

Units are S.I. units (second, meters, Newtons, ...)
Angles are in degrees.

endheader
time	pelvis_tilt	pelvis_list	pelvis_rotation	pelvis_tx	pelvis_ty	pelvis_tz	hip_flexion_r	hip_adduction_r	hip_rotation_r	knee_angle_r	knee_angle_r_beta	ankle_angle_r	subtalar_angle_r	mtp_angle_r	hip_flexion_l	hip_adduction_l	hip_rotation_l	knee_angle_l	knee_angle_l_beta	ankle_angle_l	subtalar_angle_l	mtp_angle_l	lumbar_extension	lumbar_bending	lumbar_rotation	arm_flex_r	arm_add_r	arm_rot_r	elbow_flex_r	pro_sup_r	wrist_flex_r	wrist_dev_r	arm_flex_l	arm_add_l	arm_rot_l	elbow_flex_l	pro_sup_l	wrist_flex_l	wrist_dev_l
     54.21500000	     -4.07172492	     -4.14296001	     -2.97348450	      0.89845565	      0.91016609	      0.44317894	     26.23420106	     -5.90993275	     -2.56754929	     68.28304627	     68.28304627	      7.31895965	    -19.28473631	     14.60689145	     20.17946483	     -1.56605457	      0.56636544	     35.21813100	     35.21813100	     21.69832336	    -18.41168240	     10.34387312	    -10.68673754	      6.33016392	      1.65288147	     12.80779119	    -12.14062095	    -12.09212741	     23.92996469	     47.00991046	      0.00000000	      0.00000000	     25.06865427	    -15.89344081	      9.10324589	     37.28783131	     45.59751616	      0.00000000	      0.00000000
     54.23285714	     -3.94262912	     -4.14794643	     -3.56433344	      0.89789492	      0.91000742	      0.44337923	     27.56190901	     -5.45834743	     -2.15806244	     67.80792738	     67.80792738	      8.34739922	    -19.27789600	     14.72958450	     19.63760528	     -1.68688524	      0.06210099	     35.27643632	     35.27643632	     22.15601450	    -18.40585542	     10.40004838	    -10.83717036	      6.46366560	      2.57463564	      9.42463307	    -12.53605299	    -12.35146025	     21.98473540	     47.09271838	      0.00000000	      0.00000000	     26.48644603	    -15.70410850	      8.32040051	     39.27742217	     45.72448262	      0.00000000	      0.00000000
     54.25071429	     -3.76181938	     -4.20750559	     -4.10401589	      0.89729624	      0.91054773	      0.44388465	     28.60318059	     -4.86168019	     -1.81331014	     66.61518574	     66.61518574	      9.31587279	    -19.24697060	     14.79739300	     18.87339532	     -1.84777905	     -0.34673606	     35.01555782	     35.01555782	     22.45704479	    -18.39347439	     10.51796647	    -11.07001758	      6.69382690	      2.55741190	      6.56308559	    -12.53595671	    -12.71915074	     20.66590767	     47.16588041	      0.00000000	      0.00000000	     27.41884260	    -16.14143028	      7.26125713	     40.96500699	     45.87068729	      0.00000000	      0.00000000
     54.26857143	     -3.72602322	     -4.24953550	     -4.65609265	      0.89672615	      0.91145656	      0.44471733	     29.50923572	     -4.27797773	     -1.63990061	     64.64416597	     64.64416597	     10.04697606	    -19.18756987	     14.12487816	     18.11790039	     -2.03035624	     -0.85011191	     34.47008774	     34.47008774	     22.62118294	    -18.36491713	     10.43637332	    -11.11543460	      6.88540118	      1.93343044	      4.18548586	    -12.29549401	    -14.09573166	     19.87520775	     47.35461475	      0.00000000	      0.00000000	     27.30734771	    -16.81213038	      3.79481601	     44.08168206	     46.27668055	      0.00000000	      0.00000000
     54.28642857	     -3.76675475	     -4.31712289	     -5.18155000	      0.89598447	      0.91282791	      0.44587256	     30.29614276	     -3.56667624	     -1.43279029	     62.09063538	     62.09063538	     10.67983614	    -19.04187525	     13.82460353	     17.31721676	     -2.24840685	     -1.30692507	     33.65907624	     33.65907624	     22.66921317	    -18.26307474	     10.50525362	    -11.05906504	      7.09687522	      1.68688533	      1.68121514	    -12.25969568	    -14.23368543	     18.89246808	     47.39131591	      0.00000000	      0.00000000	     28.27973068	    -17.50910358	      3.30040375	     44.89059367	     46.34357743	      0.00000000	      0.00000000
     54.30428571	     -3.79522935	     -4.33675288	     -5.74038445	      0.89522217	      0.91458742	      0.44726693	     30.71578639	     -2.96471599	     -1.31942867	     58.74454175	     58.74454175	     10.12884045	    -18.84509997	     10.01816613	     16.35349472	     -2.44702237	     -1.92336529	     32.54237400	     32.54237400	     22.25081673	    -18.17744107	      9.65680728	    -11.15110494	      7.22918069	      1.69190838	     -1.06057716	    -12.21181700	    -15.23774550	     18.85125433	     47.51159078	      0.00000000	      0.00000000	     28.69283941	    -17.79853901	      0.91295034	     47.85268393	     46.61188839	      0.00000000	      0.00000000
     54.32214286	     -4.00408339	     -4.39203154	     -6.21991789	      0.89432084	      0.91644254	      0.44899842	     31.19028253	     -2.20418487	     -1.12202990	     55.14348846	     55.14348846	     10.52573689	    -18.28804275	      9.82783828	     15.54650608	     -2.68537980	     -2.42521493	     31.34630554	     31.34630554	     22.13815764	    -17.92311757	      9.82926167	    -10.93657157	      7.42892656	      1.39359459	     -3.22051603	    -12.14991152	    -15.35651718	     18.12919225	     47.53675418	      0.00000000	      0.00000000	     29.58621807	    -18.56123912	      0.49504728	     48.58040957	     46.66580011	      0.00000000	      0.00000000
